# xmcd
#
# Track frame offsets: 
#        150
#        17327
#        33489
#        48052
#        62158
#        79104
#        94720
#        108929
#        127012
#        143995
#        162464
#        184225
#
# Disc length: 2715 seconds
#
# Revision: 1
# Processed by: cddbd v1.5.2PL0 Copyright (c) Steve Scherf et al.
# Submitted via: ExactAudioCopy v0.99pb5
#
DISCID=9a0a990c
DTITLE=Pure Prairie League - All In Good Time
DYEAR=2005
DGENRE=Country
TTITLE0=Gettin' Over You
TTITLE1=I Sure Do Miss You
TTITLE2=Don't Go Confessing Your Love
TTITLE3=Walking In My Sleep
TTITLE4=Nothing Like The Lonely
TTITLE5=Here Tomorrow, Gone Today
TTITLE6=Meant To Be
TTITLE7=That Changes Everything Again
TTITLE8=One Of Those Things
TTITLE9=Cajun Girl
TTITLE10=The Cost Of Doing Business
TTITLE11=If You Could Say What I'm Thinking
EXTD=YEAR: 2005
EXTT0=
EXTT1=
EXTT2=
EXTT3=
EXTT4=
EXTT5=
EXTT6=
EXTT7=
EXTT8=
EXTT9=
EXTT10=
EXTT11=
PLAYORDER=
